<svg xmlns="http://www.w3.org/2000/svg" viewBox="0 0 256 256" fill="currentColor">
  <path d="M 71,15L 70,15L 68,16L 66,17L 64,18L 63,19L 62.4512,20.001L 61.2246,21.9346L 59.709,23.6924L 57.9355,25.2588L 57,26L 57,27L 58.9785,29L 60.8906,31L 62.6563,33L 64.2461,35L 65,36L 66.6777,38L 68.248,40L 69,41L 70.9785,42.0264L 72.8906,43.1626L 74.6563,44.5269L 76.2461,46.1396L 77,47L 77.9121,48L 79.6582,50L 81.2461,52L 82,53L 83,54L 84,55L 86.5313,55.4902L 89.082,56.0449L 91.6836,56.6719L 93,57L 96,57L 97,55L 98,53L 98,51L 96.666,49L 96,48L 94.666,46L 94,45L 92.3223,43.4629L 90.752,41.8389L 90,41L 88.4688,39.5469L 87,38L 85.0215,36.3928L 83.1094,34.6983L 81.3438,32.8825L 79.7539,30.9722L 79,30L 77.1074,28L 76.2256,27L 74.5547,25L 73.0908,23L 71.9443,21L 71.6074,20L 71.1523,17.75Z"/>
  <path d="M 190,12L 188,11L 185,10L 184,10L 181.332,10.002L 180,10L 177,10L 175.4922,10.2461L 172.3438,10.6563L 169,10.8906L 165.6484,10.9805L 164,11L 164,23L 164,24L 164,25L 164.2656,26.2344L 164.7656,28.7344L 165.2461,31.4922L 165.6563,34.5625L 165.8926,37.7617L 166,41L 166.2461,42.4453L 166.6582,45.3945L 166.9121,48.4492L 167,50L 168,52.4688L 169,55L 178,55L 180,54L 181,52L 181,49L 180.7344,47.4844L 180.2344,44.4844L 180,43L 179.5078,39.4922L 179.1758,35.8242L 179,32L 178.752,30.4961L 178.3223,27.3555L 178,24L 177.6777,20.9941L 177.6958,19.5293L 178.0945,16.7837L 178.671,15.7185L 180.249,14.0571L 182.7455,13.26L 186.1202,13.0295L 190,13Z"/>
  <path d="M 242,87L 243,86L 243,85L 242,84L 241,83L 238.6074,81.8447L 236.2739,80.5112L 234,79L 233,79L 232,81L 231.6777,84.3555L 231.248,87.4961L 231,89L 230.6777,91.8594L 230.248,94.6367L 230,96L 229.6777,99.3555L 229.248,102.4961L 229,104L 229,107L 229,108L 229,110L 229,111L 229,112L 230,114L 233,114L 234,112L 235,109L 235.666,106.332L 236,105L 236.666,102.332L 237,101L 237.2344,99.4688L 237.7344,96.4688L 238,95L 238.2754,93.3008L 239.209,90.2617L 240.9336,87.9609Z"/>
  <path d="M 28,77L 28,73L 27,73L 24.5156,74.5313L 22,76L 21,77L 20,78L 19,79L 18.3926,80.2261L 17.124,82.6108L 15.7471,84.8198L 14.269,86.7866L 12.6831,88.4883L 11,90L 10,92L 9,94L 9,96L 9,97L 9,100L 10,100L 11,99L 12,98L 13.0654,96L 14.2373,94L 15.6035,92L 17.1719,90L 18,89L 19.4844,87L 21,85L 22.5371,83L 24.126,81.0547L 25.6992,79.2891L 27.2344,77.7344Z"/>
  <path d="M 239,74L 239,69L 238,66L 237.4688,64.7969L 236.4688,62.2969L 236,61L 235,58.5313L 234,56L 233,53.8242L 232,51.4922L 231,49L 229.6753,47L 228.3848,45L 227.1616,43L 226,41L 224,41L 224,45L 224.2656,46.4688L 224.7656,49.4688L 225,51L 225.2656,52.2344L 225.7656,54.7344L 226,56L 226.2656,57.2344L 226.7656,59.7344L 227,61L 227.4521,63.502L 227.6748,66.041L 227.5029,68.5566L 227,71L 227,73L 228,74L 229,75L 230.1582,75.5479L 232.3164,76.7627L 233.2373,77.4888L 234.1582,78.2981L 236.0396,80.0537L 237,81L 238,81L 238.3223,78.1406L 238.752,75.3633Z"/>
  <path d="M 32,107L 31,105L 29,105L 28,106L 27,107L 26,108L 25.2261,108.9121L 23.6187,110.6582L 21.8926,112.2461L 21,113L 20.1855,114L 19.3524,115L 18.4966,116L 16.7368,117.998L 14.8847,119.9785L 12.9586,121.8906L 10.9882,123.6563L 8.9978,125.2461L 8,126L 6.4224,127.5703L 4.7556,128.9043L 3,130L 2.334,132.668L 2,134L 2,138L 4,139L 6,139L 8,137.3223L 10,135.752L 11,135L 12.6072,133L 13.4545,132L 14.3323,131L 16.1435,129L 17.0963,128L 18.0636,127L 19.0414,126L 20.0266,125L 21.0169,124L 23.0043,122L 24.0026,121L 26.0005,119L 28.0001,117L 30,115L 31.332,112.998L 32,112Z"/>
  <path d="M 254,115L 253.7344,113.7656L 253.2344,111.2656L 253,110L 251.9688,107.5313L 251,105L 249,103L 248,103L 247.4121,104.2461L 246.1582,106.6582L 244.7461,108.9121L 244,110L 243.5313,111.2656L 242.5313,113.7656L 242,115L 242,119L 242,121L 242,122L 242,123L 242,126L 242,127L 242,129L 242,130L 242,132L 242,133L 242,136L 242.5156,138.5156L 243,141L 243.248,142.1973L 243.6777,144.5957L 244,147L 244.4297,148.1406L 245.248,150.5039L 246,153L 248,154L 249,154L 251,154L 252,154L 252.1611,152.5703L 252.5439,149.752L 253.0557,147.0137L 253.6729,144.332L 254,143Z"/>
  <path d="M 35,115L 35,117L 35.624,118L 36.8389,120L 38,122L 39.334,124L 40,125L 41.334,127L 42,128L 42.7656,129L 44.2656,131L 45,132L 46,133L 47,134L 48,135L 49,136L 50,137L 51,138L 51.7656,138.7344L 53.2656,140.2344L 54,141L 150,141L 153.9961,141.002L 157.957,141.0215L 161.7813,141.1094L 165.3125,141.3438L 168.4922,141.7539L 170,142L 171,142L 173.6465,141.6563L 176.2461,141.5693L 178.7637,141.8076L 180,142L 181,142L 182.332,141.8418L 185,141.6836L 187.668,141.8418L 189,142L 191,142L 193,142L 195,142L 196,142L 200,142L 201,142L 208,142L 209,142L 210,142L 212.4463,141.8262L 214.8286,141.8926L 216,142L 227,142L 227,140L 226,137L 224.666,135L 224,134L 222.666,132L 222,131L 220.666,129L 220,128L 218.3223,126L 216.752,124L 216,123L 214,121.3928L 212,119.6992L 210,117.8889L 208,116L 204.6797,115.8242L 201.6875,115.4922L 199,115L 196,115L 194,115L 192,115L 191,115L 189.5,115L 186.2539,114.998L 182.9805,114.9785L 179.8438,114.8906L 176.625,114.6563L 173.5078,114.2461L 172,114L 171,114L 167.5234,114.4922L 164.0117,114.8184L 160.5039,114.9395L 157.0273,114.8867L 153.6563,114.6563L 150.5078,114.2461L 149,114L 148,114L 145,114L 142,114L 141,114L 139,114L 138,114L 135,114L 133,114L 132,114L 130,114L 127,114L 126,114L 125,114L 123,114L 122,114L 120,114L 118,114L 117,114L 115,114L 114,114L 111,114L 109,114L 108,114L 107,114L 100,114L 98.1074,115.582L 95.9746,116.7695L 93.4043,117.3926L 90.5957,117.3926L 89.3105,117.0811L 86.959,116.1758L 84.9463,114.791L 84,114L 83,114L 82,114L 78,114L 77,114L 70,114L 67.5156,114.0469L 65,114L 64,114L 61,114L 57,114L 55,114L 53,114L 51.4922,114.2461L 48.3438,114.6563L 46.6719,114.7734L 45.0361,114.854L 41.8135,114.9614L 38.5264,114.9937Z"/>
  <path d="M 54,139L 53,138L 51.0215,136.3928L 49.1094,134.6983L 47.3438,132.8825L 45.7539,130.9722L 45,130L 44,129L 43,129L 42.3257,130L 40.9507,132L 39.5073,134L 38,136L 37.2578,137L 35.7556,139L 34.2073,141L 32.5762,143L 30.8223,145L 28.9556,147L 28,148L 26.7332,150L 25.3269,152L 23.7141,154L 21.927,156L 21,157L 20.7656,158.2656L 20.2656,160.7656L 20,162L 19.7656,163.2656L 19.2656,165.7656L 19,167L 19,170L 19.2656,171.2344L 19.7656,173.7344L 20,175L 21,175L 21.7344,174.2344L 23.2344,172.7344L 24,172L 25,171L 26,170L 28,168L 28.7905,167L 30.4238,165L 32.1777,163L 34.0444,161L 35,160L 36.4775,158.0088L 37.9795,156.0938L 39.5303,154.335L 41.1611,152.752L 42,152L 43.5811,150.0215L 45.2668,148.1094L 47.092,146.3438L 49.019,144.7539L 50,144L 51.5371,142.3223L 53.1611,140.752L 54,140Z"/>
  <path d="M 32,111L 33.334,113L 34,114L 35,115L 37.668,115.666L 39,116L 40,116L 41.5078,115.7539L 44.6563,115.3438L 46.3281,115.2266L 48.0264,115.146L 51.499,115.0386L 53.3179,115.0222L 56.7363,115.001L 59.668,114.998L 61,115L 64,115L 65,115L 70,115L 71.166,114.8418L 73.5,114.6836L 75.834,114.8418L 77,115L 78.1963,115.0981L 80.5674,115.4468L 82.8447,116.1831L 84.9736,117.3345L 86,118L 98,118L 99.7695,116.4375L 101.5977,115.3164L 103.6289,114.8164L 105.8555,114.8633L 107,115L 108,115L 109,115L 111,115L 114,115L 115,115L 117,115L 118,115L 120,115L 122,115L 123,115L 125,115L 126,115L 127,115L 130,115L 132,115L 133,115L 135,115L 138,115L 139,115L 141,115L 142,115L 145,115L 148,115L 149,115L 150.5,115L 153.9961,115.002L 157.957,115.0215L 161.7813,115.1094L 165.3125,115.3438L 168.4922,115.7539L 170,116L 171,116L 174.293,115.6152L 177.4922,115.5234L 180.5273,115.7891L 182,116L 183,116L 186,116L 189.4697,116.0078L 192.3799,116.0703L 195.1963,116.2891L 197.7861,116.7266L 199,117L 201,117L 203,117L 204,117L 206,116L 206,115L 205,114L 204,113L 203,112.334L 201,111L 200,110.4297L 198,109.248L 196,108L 194,107L 192,106L 190.7344,105.5L 188.2344,104.5L 187,104L 185.6113,103.624L 182.8184,102.8389L 180,102L 177.332,101.334L 176,101L 174.7344,100.7656L 172.2344,100.2656L 169.7305,99.7266L 167.2656,99.0469L 165,98.0469L 162.9648,96.7266L 162,96L 158.7617,95.8926L 155.5625,95.6563L 152.4922,95.2461L 151,95L 148,95L 147,95.2402L 145,95.5742L 143,95.5664L 141,95.2324L 140,95L 139,95L 137,95L 136,95L 133,95L 132,95L 131,95L 129,95L 126,95L 124,95L 123,95L 120,95L 117,95L 114,95L 111.5156,95.0469L 109,95L 107.1641,94.9805L 103.6406,94.8906L 100.4219,94.6563L 97.4453,94.2461L 96,94L 95,94L 92,95L 91.2148,95.8643L 89.3574,97.2764L 88.25,97.5942L 86.0713,97.9561L 85,98L 83.5508,98.2441L 80.582,98.6328L 77.5039,98.7598L 74.457,98.5254L 71.6211,97.9004L 69,97L 68,97L 66.6357,97.3896L 63.9546,98.0542L 61.3379,98.4043L 58.7012,98.3496L 56,98L 55,98L 52.1758,98.0625L 49.5078,97.7285L 47,97L 44.6875,96.6476L 42.3477,95.983L 40,95L 39,95L 35.9258,95.4629L 32.6777,95.8389L 31,96L 29,97L 29,101L 29.334,102.332L 30,105L 30.4297,106.1406L 31.248,108.5039Z"/>
  <path d="M 46,145L 46,147L 52,147L 54,145.4688L 56,144L 56,142L 55,141L 54,140L 52,140L 51,140.9121L 49,142.6582L 47,144.2461Z"/>
  <path d="M 4,110L 4,113L 6,113L 7.5776,111L 9.2444,109L 11,107L 11.7686,105.9297L 13.3667,103.8696L 15.0981,101.9399L 16,101L 16.7314,100.1406L 18.2891,98.5039L 20,97L 20.5176,96L 21.5898,94L 22.1719,93L 23.3838,91L 24.6729,89L 26,87L 27,85L 27,77L 26,77L 25,78L 24.2656,78.7656L 22.7656,80.2656L 22,81L 21.3867,82L 20.0801,84L 18.5801,86L 16.8867,88L 16,89L 15.334,90L 14.667,91L 13.3081,92.875L 11.624,94.4219L 9.3159,95.5469L 8,96L 7,98L 6.5015,101.0029L 5.9185,103.8369L 5.5735,105.147L 4.8291,107.6582Z"/>
  <path d="M 134,16L 134,15L 131,14L 128.1406,13.6777L 125.3633,13.248L 124,13L 117,13L 117,14L 118.334,16L 119,17L 120,18L 121,19L 122,20L 123,21L 125,21L 126.0103,20.3711L 128.0825,19.127L 129.1809,18.5137L 131.4932,17.2725Z"/>
  <path d="M 229,72L 229,66L 228.7344,64.7656L 228.2344,62.2656L 228,61L 227.7344,59.7656L 227.2344,57.2656L 227,56L 226.7344,54.7656L 226.4844,53.5156L 226.252,52.209L 226.0752,50.8594L 225.9268,48.1416L 226.3252,45.5146L 227.3477,43.1279L 228,42L 228,41L 227.2344,40L 225.7344,38L 225,37L 224,36L 221.4844,34.5156L 219,33L 217,33L 217,38L 217.248,39.3633L 217.6777,42.1406L 218,45L 218.2656,46.2344L 218.7656,48.7344L 219,50L 219.2656,51.2344L 219.7656,53.7344L 220,55L 220.2656,56.2344L 220.7656,58.7344L 221.248,61.3633L 221.6777,64.1406L 222,67L 223,68L 224,69L 226,70.4844L 228,72Z"/>
  <path d="M 86,10L 85,10L 83.668,10.334L 81,11L 78,12L 76.2207,13.3164L 73.8867,14.3164L 71,15L 69,17L 69,18L 69,19L 69,20L 70.6777,22L 72.248,24L 73,25L 74.8926,27L 76.6563,29L 78.2461,31L 79,32L 79.9961,32.999L 81.9609,34.9941L 83.8203,36.9863L 85.4922,38.9863L 87,41L 88,42L 89.9785,43.5811L 91.8906,45.2668L 93.6563,47.092L 95.2461,49.019L 96,50L 97,51L 98,51L 99.2148,49L 100.5479,47L 102,45L 102.666,44L 104,42L 104,41L 102.9979,40.2095L 101.0124,38.576L 99.101,36.8204L 97.3391,34.9427L 95.7526,32.9889L 95,32L 93.1074,30L 91.3438,28L 89.7539,26L 89,25L 87.3223,23L 86.5371,22L 85.087,20.0349L 84.131,18.0115L 84.1573,15.8591L 85.2374,13.8826L 86,13Z"/>
  <path d="M 191,12L 190,12L 188.668,12.1582L 186,12.3164L 183.332,12.1582L 182,12L 176,12L 176,14L 176.2461,15.5078L 176.6582,18.6836L 176.9121,22.1758L 177,24L 177.248,25.5039L 177.6777,28.6445L 178,32L 178.3438,34.8828L 178.4307,37.7637L 178.1924,40.5996L 178,42L 178,43L 178.4102,44.5078L 179.1387,47.5625L 179.6563,50.7266L 180,54L 182.8594,54.3223L 185.6367,54.752L 187,55L 192,55L 192,49L 191.5898,47.8203L 190.8633,45.2734L 190.3633,42.2734L 190.0898,38.8203L 190,37L 189.7344,35.5313L 189.2344,32.5313L 189,31L 188.7539,29.5547L 188.3418,26.6055L 188.0879,23.5508L 187.9727,20.7109L 188.2891,18.2578L 189.5234,16.1953L 191.707,14.6484L 193,14L 193,13Z"/>
  <path d="M 248,94L 247,92L 246,90L 245,88L 244,87L 243,86L 241.668,85.668L 239,85L 238,85L 237.9121,86.8242L 237.6582,90.3164L 237.2461,93.4922L 237,95L 236.5098,98.0195L 235.9551,100.9102L 235.3281,103.6563L 235,105L 235,107L 236,107L 237,106L 238.2266,104.2266L 239.6133,102.6133L 241.2813,101.2266L 242.3037,100.6631L 244.4873,99.7295L 246.8242,99.1797L 248,99Z"/>
  <path d="M 20,167L 20,163L 18,163L 17,164L 16,165L 15,166L 15,169L 16,170L 17,171L 18,171L 19,170Z"/>
  <path d="M 75,237L 77,236L 77,234L 76.0654,231.0439L 75.2373,228.1279L 74.6035,225.2598L 74.1719,222.418L 74,221L 73.6357,219.834L 73.1045,217.5L 72.9688,215.166L 73,214L 73,212L 72.5898,210.582L 71.8613,207.7461L 71.3438,204.8906L 71,202L 67.6445,201.6777L 64.5039,201.248L 63,201L 59,201L 58,202L 58,206L 58,207L 58,208L 58.1074,209.1816L 58.1738,211.5703L 58,214L 58,217L 58.2656,218.4688L 58.7656,221.4688L 59,223L 59.7734,225.4141L 60.3867,228.0469L 60.7734,230.9453L 61,234L 64,235L 65.4121,235.1758L 68.1582,235.6836L 70.7461,236.5078L 72,237Z"/>
  <path d="M 200.9844,238.2031L 202.9844,236.7031L 204,236L 204.6128,235L 205.9141,233L 207.3872,231L 209,229L 209,228L 207,227L 204.002,225.998L 202.5381,225.4619L 199.7178,224.2822L 198.4453,223.5586L 196.0952,221.9448L 194.1924,220.0098L 192.8496,217.8223L 192.1387,215.5176L 192.0225,213.2383L 192.374,211.0703L 193.0762,209.0098L 194,207L 194.2344,206L 194.7344,204L 195,203L 195,202L 187,202L 185.6406,202.2266L 182.8906,202.5469L 180.1094,202.5469L 178.7344,202.3867L 177.3867,202.1953L 174.7539,201.7676L 172.2344,201.2656L 171,201L 169.4688,200.7656L 166.4688,200.2656L 165,200L 160,200L 159,201L 158.4185,202L 157.2173,204L 155.9185,206L 154.5015,208L 153.7507,209L 152.2314,211L 150.6509,213L 149.8254,214L 148.2261,215.9121L 146.6187,217.6582L 144.8926,219.2461L 144,220L 143,220.9121L 141,222.6582L 139,224.2461L 138,225L 138,226L 140.9648,226.1074L 143.8555,226.3438L 146.6367,226.7539L 148,227L 149.5313,227.2344L 152.5313,227.7344L 155.2656,228.2344L 157.7656,228.7344L 159,229L 160.2656,229.2344L 162.7656,229.7344L 164,230L 165.2656,230.2344L 167.7656,230.7344L 169,231L 172.0195,231.4902L 174.9102,232.0449L 176.2832,232.3584L 178.9961,233.002L 181.6777,233.6768L 184.3691,234.4189L 187.0527,235.3154L 189.6934,236.4072L 191,237L 192.248,237.3223L 194.6777,238.0742L 197,239L 200,239Z"/>
  <path d="M 7,160L 8,161L 9,161L 10,160L 11,159L 12,158L 13,157L 14,156L 14,155L 13,154L 11,154L 9,155.0313L 7,156Z"/>
  <path d="M 47,224L 47,219L 46.998,217.666L 47,215L 47,212L 46.707,210.7012L 46.4658,209.4092L 46.1172,206.8145L 46.0615,204.1416L 46.2969,201.333L 46.7402,198.4473L 47,197L 47,196L 46,195.5L 44,194.498L 42,193.4805L 40,192.4102L 39,191.8281L 38,191.2222L 37,190.5964L 35,189.3093L 33,187.949L 31,186.5073L 29,185L 28,185L 26,186L 24,187L 24,194L 25,196.1758L 26,198.5078L 27,201L 27.624,202L 28.8389,204L 30,206L 31.334,208L 32,209L 33.334,211L 34,212L 34.9121,213L 36.6582,215L 38.2461,217L 39,218L 40,219L 41,220L 42,221L 43,222L 44,222.666L 46,224Z"/>
  <path d="M 180,245L 178.5,244.5L 175.5547,243.5156L 172.7891,242.5469L 170.2344,241.5313L 169,241L 167.7344,240.7656L 165.2344,240.2656L 164,240L 160.9805,239.5098L 158.0898,238.9551L 155.3438,238.3281L 154,238L 152.7344,237.7656L 150.2344,237.2656L 149,237L 147.4688,236.7656L 144.4688,236.2656L 143.1016,236.0156L 140.4688,235.5098L 137.918,234.9551L 135.3164,234.3281L 134,234L 132.7344,233.7656L 130.2344,233.2656L 129,233L 124,233L 122,234L 121,235L 121,237L 122,238L 123,239L 125,240L 127,241L 129,242L 131,243L 133,244L 136,245L 139,246L 142,247L 144.668,247.666L 146,248L 148,248L 150.2393,247.3081L 153,247L 154.5078,246.7539L 156.0977,246.5488L 159.4492,246.2285L 163.0879,246.0869L 166.8047,246.1211L 170.3145,246.3447L 173.4922,246.7539L 175,247L 176,247L 177.332,246.666L 180,246Z"/>
  <path d="M 236,165L 235.7686,163.7852L 235.3491,161.376L 235,159L 234.666,157.668L 234,155L 233.5703,153.8594L 232.752,151.4961L 232,149L 231,146.5313L 230,144L 229,142L 228,140L 227,140L 224.2676,140.8369L 221.5215,141.3086L 218.8438,141.2549L 216.3418,140.75L 214,140L 211,140L 208.9297,140.6279L 206.7637,141.1191L 204.4902,141.3135L 202.166,141.1582L 201,141L 200,141L 197.332,141.002L 196,141L 195,141L 193,141L 191,141L 189,141L 181,141L 180,141L 171,141L 170,141L 55,141L 53.7744,142.8926L 52.3975,144.6563L 50.8281,146.2461L 50,147L 49,148L 48,149L 47,150L 46,151L 45,152L 44.4521,154L 43.7852,156L 43,158L 43,161L 45.5313,161.4688L 46.7495,161.7329L 49.0889,162.3291L 50.1321,162.8074L 51.9998,164.092L 53.4121,165.9492L 54,167L 55.1074,167.4834L 57.1738,168.6113L 59,170L 62,170L 64.1182,168.9229L 65.3682,168.7813L 67.6841,169.2095L 69.375,170.8896L 70,172L 71.9102,172.0029L 75.4883,172.0352L 77.0391,172.1157L 79.916,172.4692L 82.3047,173.3818L 84.1836,175.0107L 85,176L 88,176L 88.876,175.1621L 90.7749,173.6958L 93.0742,172.7183L 95.9194,172.2295L 99.3013,172.0518L 103.0635,172.0073L 105.0349,172.0039L 106.769,172.0021L 110.2516,172.0001L 113.5,172L 115,172L 116,172L 117,172L 118,172L 123,172L 124,172L 128,172L 130,172L 134,172L 137.9336,172.0039L 141.6484,172.0391L 145.1328,172.1797L 148.5547,172.5078L 152,173L 153,173L 154.4688,172.7734L 157.4688,172.4531L 160.5313,172.4531L 163.5313,172.7734L 165,173L 166,173L 168,172L 168.5957,170.6836L 169.3105,169.5254L 170.959,167.5352L 171.957,166.8203L 174.0679,165.5537L 176.4458,164.5459L 179.1973,163.7598L 182.3418,163.2148L 184,163L 185.4492,162.7559L 188.418,162.3672L 191.4961,162.2402L 193.0195,162.3574L 195.9473,162.7842L 197.2637,163.1636L 199.7354,164.0181L 201.9385,164.9951L 204,166L 205,166.2344L 207,166.7344L 208,167L 211.2383,167.1074L 214.4375,167.3438L 215.9727,167.5488L 218.9414,168.0176L 221.6289,168.6445L 223.9414,169.5039L 225,170L 227.9238,170.4961L 230.4766,171.4473L 232.3574,173.1621L 233.5508,175.6172L 234,177L 235,177L 235.1074,173.7617L 235.3438,170.5625L 235.7539,167.4922L 236,166Z"/>
  <path d="M 121,237L 122.7236,235.5479L 124.7227,234.2148L 125.8613,233.6074L 128,232.5L 129,232L 131,231L 132,230.376L 134,229.1611L 136,228L 137,227.2344L 139,225.7344L 140,225L 141,224.0879L 143,222.3418L 145,220.7539L 146,220L 147,219L 148,218L 149,217L 149.7686,216L 151.3491,214L 153,212L 154.4844,210L 156,208L 156.666,207L 157.9707,205.0586L 159.291,203.3301L 160.0654,202.6748L 161.8335,201.6616L 164.0669,201.2446L 166.7104,201.3374L 169.5571,201.7446L 171,202L 193,202L 194.332,201.666L 197,201L 198.332,200.666L 201,200L 202.332,199.666L 203.666,199.333L 205.0391,199.0054L 207.7773,198.4492L 209.0752,198.3452L 211.498,198.4302L 213.5142,199.1577L 215.0503,200.5786L 216.1533,202.6069L 217,205L 218,207L 218.8535,207.9883L 220.2817,209.9653L 220.9736,211.9541L 220.8789,212.9609L 220.3865,214.9792L 219.4944,216.9954L 219,218L 219,219L 220,221L 221,221L 221.666,220L 223,218L 223.666,217L 225,215L 225.666,214L 227,212L 228,210L 229,208L 230,206L 230.5,204.7344L 231.5,202.2344L 232,201L 233,198L 234,195L 235,192L 235.0195,190.3516L 235.1094,187L 235.3438,183.6563L 235.7539,180.5078L 236,179L 236,178L 235.0742,175.3555L 234.3223,172.4961L 234,171L 233,170L 231.666,169.334L 229,168L 227.7773,167.7969L 225.2773,167.2969L 224,167L 222.4258,166.998L 220.7969,166.9883L 217.4922,166.9336L 214.2109,166.7617L 211.1582,166.3857L 208.4453,165.7734L 206,165L 205,164.708L 203,164.0229L 201,163.1064L 199,162L 184,162L 182,162L 180,162L 178.668,162.334L 176,163L 173.8926,164.1182L 171.6563,165.0435L 169.2461,165.7192L 168,166L 166.6836,168.4492L 164.8164,170.3184L 162.1504,171.3887L 158.8555,171.8047L 155.3691,171.7949L 152.0664,171.4902L 149,171L 147,171L 144.332,171.002L 143,171L 142,171L 140.5313,171.2266L 137.5313,171.5469L 134.4688,171.5469L 131.4688,171.2266L 130,171L 128,171L 125.332,171.002L 124,171L 123,171L 120.5156,171.0469L 118,171L 117,171L 116,171L 115,171L 112.5156,171.0469L 110,171L 109,171L 105.9453,171.4297L 102.7656,171.6641L 99.5566,171.5908L 96.4863,171.2354L 95,171L 94,171L 91,171L 90,171L 87.2852,171.5254L 84.3906,171.7656L 81.3906,171.6406L 78.4453,171.2461L 77,171L 75.9502,170.8882L 74.936,170.6071L 73.0742,169.6506L 71.6133,167.9877L 71,167L 64,167L 61.6431,166.895L 59.4626,166.3323L 57.7096,165.0516L 56.4869,163.1083L 56,162L 54.5352,161.7598L 51.7422,161.2461L 50.4971,160.9507L 49.313,160.6365L 47.0464,159.9436L 44.9624,159.0676L 43,158L 41,158L 39,160L 38,161L 37,162L 36.2373,162.9648L 34.6426,164.8203L 32.8877,166.4922L 31,168L 30.4805,168.9805L 29.3906,170.8906L 28.1563,172.6563L 26.7461,174.2461L 26,175L 25,177L 24,180L 24,181L 25,182L 26,183L 27,184L 28,185L 29,186L 30,187L 31,188L 32,188.666L 34,190L 35,190.666L 37,192L 39,193L 41,194L 43,195L 45,196L 47,197L 49,198L 52,199L 55,200L 58,201L 59.2656,201.2344L 61.7656,201.7344L 63,202L 64.5508,202.0879L 67.6055,202.3418L 70.5547,202.7539L 72,203L 82,203L 83.4917,202.814L 86.4336,202.6318L 89.1138,202.998L 90.1438,203.5657L 91.8416,205.0803L 92.938,207.2461L 93.6267,209.7852L 93.957,212.4102L 93.9785,213.7051L 94,216L 94.498,217.4961L 95.4805,220.4688L 96.4102,223.3828L 97.2461,226.2188L 97.623,227.6094L 97.9932,228.9922L 98.5996,231.6836L 98.6865,234.0957L 97.8008,235.9766L 95.7305,237.1738L 92.6758,237.7363L 89.1514,237.8457L 85.6816,237.6523L 84.0947,237.4492L 82.604,237.2314L 79.791,236.7725L 77.2344,236.2656L 76,236L 75,236L 75,238L 76,239L 79,240L 80.2656,240.2344L 82.7656,240.7344L 84,241L 88,241L 89.5078,240.7539L 92.6875,240.3438L 96.2188,240.1094L 100.043,240.0215L 104,240L 105.5078,239.7539L 108.6836,239.3418L 112.1758,239.0879L 114,239L 115.4141,238.5703L 118.2227,237.752Z"/>
  <path d="M 216,225L 215,224L 214,224L 213,225L 212,226L 211,227L 211,228L 214,228L 215,227L 216,226Z"/>
  <path d="M 28,96L 29,97L 31,97L 33,97L 36.1936,97.016L 38.543,97.2502L 40.8064,97.941L 43,99L 44.5742,99.0127L 47.3633,99.0938L 49.9063,99.3301L 52.6172,99.749L 54,100L 55,100L 56.333,99.998L 59,100L 60,100L 62.4844,99.5L 65,99.125L 67.5156,98.9688L 70,99L 85,99L 86,99L 93,99L 93.916,97.832L 95.8376,96.2371L 98.0935,95.741L 100.6719,95.8359L 102,96L 105,96L 107.668,95.998L 109,96L 114,96L 117,96L 120,96L 123,96L 124,96L 126,96L 127.5,96L 130.5547,96.002L 133.3125,96.0215L 135.8203,96.1094L 138.3828,96.3438L 140.8203,96.7539L 142,97L 143,97L 144,97L 148,97L 149.2271,96.7578L 150.5183,96.5723L 153.2246,96.3594L 156.108,96.54L 158.9795,97.2188L 161.6913,98.3447L 163,99L 166,100L 167.2656,100.2344L 169.7656,100.7344L 171,101L 172.2676,101.2461L 174.8242,101.7783L 177.4551,102.4121L 180.1914,103.165L 181.5957,103.5825L 184.248,104.376L 185.4629,104.7686L 187.874,105.5981L 190.3008,106.5176L 192.7656,107.5L 194,108L 196,108L 197,107L 198,105L 198,104L 196.9531,102.0469L 196.4766,101.0234L 195.5479,98.9321L 194.7627,96.6978L 194.2148,94.2656L 194,93L 193.7168,91.79L 193.2656,89.3828L 193,87L 192.2617,86.1973L 191.0254,84.3955L 190.2637,82.1982L 190,81L 189.2178,80.1641L 187.9053,78.2656L 187,76L 185.9923,75.3771L 184.2831,73.9276L 183.7997,73.0074L 183.1818,71.0302L 183.1085,68.8386L 183.2545,67.6874L 183.7256,65.3921L 184.5327,63.1804L 185.6118,61.1746L 186.9502,59.5029L 188.6211,58.3398L 190.6309,57.8184L 192.8555,57.8633L 194,58L 202,58L 202,57L 200.6113,56.624L 197.8184,55.8389L 195,55L 175,55L 173.4961,55.248L 170.3555,55.6777L 167,56L 165.668,56.334L 163,57L 161.668,57.334L 159,58L 157.668,58.334L 155,59L 152.5313,60L 150,61L 148.8594,61.624L 146.4961,62.8389L 144,64L 142,65.334L 141,66L 139,67.334L 138,68L 137,68.7656L 136,69.5156L 134.9766,70.2695L 133.9262,70.9946L 132.8525,71.6411L 130.6712,72.6812L 128.4516,73.0715L 126.2505,72.6526L 124.1028,71.5261L 123.0514,70.7631L 122.0257,70.0143L 120,68.5156L 118,67L 116.0059,65.8369L 115.0313,65.2017L 114.103,64.5024L 113.2534,63.7209L 112.511,62.8454L 111.283,60.9019L 110.6245,58.606L 110.5923,56.0856L 111.1224,53.5208L 112,51L 112,50L 112,47L 112,46L 112,44L 112,43L 111.0303,42.1885L 110.3092,41.2377L 109.323,39.0676L 109.0289,36.4242L 109,35L 108,35L 107,36L 106,37L 105.334,38L 104.667,39L 103.3257,41L 101.9507,43L 100.5073,45L 99,47L 98,49L 97.624,50.248L 96.8389,52.6777L 96,55L 95,58L 94,61L 93.334,63.668L 93,65L 92.334,67.668L 92,69L 91.5098,72.0195L 91.2324,73.4648L 90.9282,74.8625L 90.1948,77.4901L 89.0493,79.5406L 87.312,80.5333L 85.1455,80.3527L 84,80L 81.6914,79.9785L 79.0664,79.8906L 76.207,79.6563L 73.3789,79.2461L 72,79L 66,79L 64.6616,79.1768L 63.3105,79.2995L 60.6035,79.3972L 57.9457,79.1393L 55.4478,78.449L 53.1548,77.3516L 51,76L 48.3608,75.0635L 45.8816,73.9408L 43.7048,72.5336L 41.8535,70.8772L 41,70L 40,69.4629L 39,68.8823L 38.0112,68.2693L 36.1306,66.9656L 34.6387,65.4324L 33.8696,63.5234L 33.8503,61.2285L 34,60L 34,55L 32,55L 31,57L 30.8242,58.3594L 30.3613,61.1094L 29.6191,63.8906L 28.582,66.6406L 28,68L 28,72L 28.1719,73.3232L 28.3809,75.9561L 28.2534,78.5791L 27.749,81.251L 27,84L 27,91L 27.2656,92.2344L 27.7656,94.7344Z"/>
  <path d="M 117,27L 116,27L 114,28.334L 113,29L 112,30L 111,31L 110,32L 109,34L 109,36L 110,36L 111,35L 112,34L 113,33L 114,32L 115,31L 116,30L 117,29Z"/>
  <path d="M 61,233L 62,231L 62,229L 61.666,227.668L 61,225L 60.2344,222.6182L 59.6846,220.1191L 59.5264,217.584L 59.7813,215.166L 60,214L 60,213L 59.5776,210.6294L 59.2534,208.2466L 59.0698,205.8071L 59.0385,204.545L 59.0035,202.1415L 59,201L 58,200L 55,199L 52,198L 49,197L 46,197L 45.7656,198.5313L 45.2656,201.5313L 45,203L 45,208L 45.1836,209.2314L 45.3691,211.6318L 45.1855,213.9004L 45,215L 45,216L 45.4121,217.4492L 46.1582,220.3945L 46.7461,223.4453L 47,225L 48,226L 49.3555,226.6445L 51.8516,228.1484L 54,230L 55,230.5703L 57,231.752L 59,233Z"/>
  <path d="M 197,238L 196,237L 194.7344,236.5313L 192.2344,235.5313L 191,235L 188.332,234.334L 187,234L 184.332,233.334L 183,233L 180.332,232.334L 179,232L 176.332,231.334L 175,231L 173.4688,230.7656L 170.4688,230.2656L 167.7344,229.7656L 165.2344,229.2656L 164,229L 162.7344,228.7656L 160.2344,228.2656L 159,228L 157.7344,227.7656L 155.2344,227.2656L 154,227L 150.9805,226.5098L 148.0898,225.9551L 145.3438,225.3281L 144,225L 141,225L 139.668,225.334L 137,226L 136,226.624L 134,227.8389L 132,229L 131,229.624L 129,230.8389L 127,232L 127,233L 129,234L 131.5313,234.4902L 134.082,235.0449L 136.6836,235.6719L 138,236L 139.2656,236.2344L 141.7656,236.7344L 143,237L 144.5313,237.2344L 147.5313,237.7344L 148.8984,237.9844L 151.5313,238.4902L 154.082,239.0449L 156.6836,239.6719L 158,240L 159.5273,240.2383L 162.4805,240.7852L 165.2148,241.5195L 167.7617,242.4727L 169,243L 171.5898,243.5352L 174.252,244.2012L 177,245L 180,245L 181.5039,244.752L 184.6445,244.3223L 188,244L 190.4336,242.9336L 193,242L 194.9375,240.4531L 197,239Z"/>
  <path d="M 151,246L 150,245L 148.7344,244.7656L 146.2344,244.2656L 145,244L 141,244L 141,245L 143,246L 145.668,246.666L 147,247L 151,247Z"/>
  <path d="M 175,246L 153,246L 153,247L 154,248L 169,248L 170.4688,247.7344L 173.4688,247.2344L 175,247Z"/>
  <path d="M 236,178L 237,177L 238,176L 239,175L 239,173L 238.2813,172.1328L 237.0078,170.2148L 236,168L 235,168L 235,178Z"/>
  <path d="M 35,56L 34,56L 33.334,58.668L 33,60L 32.334,62.668L 32,64L 32,68L 33.2261,68.3813L 35.6147,69.2637L 37.8589,70.4077L 39.9663,71.7949L 41.9961,73.3501L 44,75L 45.4199,75.4951L 48.1563,76.5293L 50.666,77.6953L 53,79L 55,80L 57.668,80.666L 59,81L 61,81L 62.2393,80.7456L 64.7217,80.2856L 67.1846,79.9897L 69.5664,79.9932L 71.8281,80.3652L 74,81L 77.2402,81.0771L 80.1504,81.3047L 82.5938,81.8525L 84.5859,82.8408L 86.2383,84.2266L 87,85L 88,86L 90,86L 90.1611,84.5703L 90.5439,81.752L 91.0557,79.0137L 91.6729,76.332L 92,75L 92,71L 91,71L 89.875,71.2598L 88.6719,71.4717L 87.4141,71.6343L 86.1289,71.7533L 83.5527,71.9036L 82.3057,71.868L 81.1177,71.7383L 79.9915,71.4927L 77.8469,70.7494L 75.8674,69.5116L 73.9531,67.8857L 73,67L 70.4492,66.4883L 67.918,65.8477L 65.4336,65.0039L 63,64L 60.9492,63.2637L 58.9453,62.2637L 57,61L 56,60.875L 54,60.5215L 52,60L 51,60L 50,60L 48,60L 46.6334,60.2743L 43.972,60.6483L 41.5028,60.5526L 39.3019,59.8414L 37.4028,58.5593L 35.7651,56.8965Z"/>
  <path d="M 123,21L 121,22.334L 120,23L 119,24L 118,25L 117,26L 116.1964,27.1964L 114.5455,29.5455L 112.7904,31.7904L 110.9274,33.9274L 109,36L 108.334,37L 107,39L 106.334,40L 105,42L 105,43L 105.9771,43.585L 107.8052,44.9023L 109.2019,46.5757L 109.8594,48.5986L 109.6985,50.7905L 109,53L 108.9121,54.4121L 108.6582,57.1582L 108.2461,59.7461L 108,61L 108,62L 109,62.666L 111,64L 112,64.666L 114,66L 116,67.2148L 117,67.8813L 118,68.5786L 120,70.0259L 122,71.5786L 124,73.2444L 126,75L 127,75L 127.3223,72.1406L 127.752,69.3633L 128,68L 128,61L 127.5049,58.4063L 127.3496,55.9121L 127.624,53.5313L 128.2256,51.2373L 129,49L 129,47L 129,46L 129,45L 128.5879,42.8203L 128.4063,40.4531L 128.5723,37.8203L 129,35L 129,28L 128.7344,26.7656L 128.2344,24.2656L 128,23L 127,20L 125,20Z"/>
  <path d="M 128,18L 128,20L 130,20L 132,19L 134,18L 135,17L 135,16L 131,16L 129,17.334Z"/>
  <path d="M 205,58L 201.7617,57.8926L 198.5625,57.6563L 195.4922,57.2461L 194,57L 187,57L 186,58L 185.4297,59L 184.248,61L 183,63L 182,65L 181,68L 180.8457,70L 180.5146,72L 180,74L 180,75L 181,76L 182.8184,77.7852L 184.335,79.8672L 185,81L 186.75,82.8369L 188.043,84.7368L 188.5039,85.877L 189.2754,88.2332L 189.75,90.6406L 190,93L 191.3564,94.7544L 192.3555,96.7578L 193,99L 193.4297,100L 194.2432,102.0215L 194.9473,104.1484L 195.5225,106.4824L 196,109L 197,110L 198,110.5815L 200,111.7827L 202,113.0815L 204,114.4985L 206,116L 208,116L 208,114L 207.5461,112.8859L 207.1185,111.7469L 206.3369,109.4176L 206.035,108.2094L 205.5355,105.769L 205.2319,103.2928L 205.0805,100.792L 205.0176,98.2675L 205,97L 204.3643,95.9023L 203.251,93.5664L 202.8799,92.207L 202.6008,90.7627L 202.1958,87.7998L 202.116,86.3169L 202.0673,84.9153L 202.0385,83.6102L 202.005,81.0518L 202.0002,78.3992L 202,77L 201.8672,75.8721L 201.8262,74.6943L 201.9219,72.1938L 202.3516,69.4395L 203.0742,66.6445L 204,64L 204.2344,62.7344L 204.7344,60.2344L 205,59Z"/>
  <path d="M 115,28L 114.0195,27L 112.1094,25L 110.3438,23L 108.7539,21L 108,20L 106.0215,18L 104.1094,16L 102.3438,14L 100.7539,12L 100,11L 94,11L 92.668,11.334L 90,12L 90,13L 91.6777,15L 93.248,17L 94,18L 95.8926,20L 97.6563,22L 99.2461,24L 100,25L 100.9121,26L 102.6582,28L 104.2461,30L 105,31L 106,32L 107,33L 108,34L 110,34L 110.7739,33.0879L 112.3813,31.3418L 114.1074,29.7539L 115,29Z"/>
  <path d="M 205,59L 208,60L 210,60L 210,52L 209.5898,50.8281L 208.8633,48.3438L 208.3633,45.5625L 208.0898,42.5469L 208,41L 207.7344,39.5313L 207.2344,36.5313L 207,35L 206.5898,33.8555L 206.2256,32.6563L 205.6133,30.168L 205.2793,27.6074L 205.3105,25.1973L 205.7139,23.0293L 206,22L 206,21L 203.999,19.668L 203,19L 201.7344,18.7656L 199.2344,18.2656L 198,18L 196,18L 196,22L 196.2261,23.186L 196.6187,25.5396L 196.8926,27.8535L 197,29L 197.4224,31.4224L 197.7556,33.7556L 198,36L 198.6494,38.6621L 199.2305,41.3594L 199.6768,44.1387L 200,47L 200.334,48.332L 201,51L 201.334,52.332L 202,55L 203,58Z"/>
  <path d="M 2,134L 3,134L 3.777,132.9949L 4.5851,131.9919L 5.4285,130.9909L 6.3061,129.9913L 7.2139,128.9924L 8.1466,127.9938L 9.0987,126.9951L 10.0654,125.9964L 11.0427,124.9974L 12.0275,123.9982L 13.0175,122.9987L 14.0111,121.9991L 15.0069,120.9994L 17.0016,118.9998L 18.001,117.9999L 19.0006,116.9999L 20.0003,116L 22.0001,114L 24,112L 26,110L 26.7686,109L 28.3491,107L 30,105L 30,101L 29,98L 28,98L 26,99.334L 25,100L 24,101L 23,102L 21,104L 19.4192,105.8926L 17.7366,107.6563L 15.9302,109.2461L 15,110L 13.4961,111.5273L 12.6719,112.2852L 10.8945,113.7422L 8.8887,114.8809L 6.8203,115.2344L 4.9023,114.5742L 4,114L 3,114L 2.6777,117.3555L 2.248,120.4961L 2,122Z"/>
  <path d="M 1,135L 1,122L 0,122L 0,135Z"/>
  <path d="M 231,52L 232,53L 233,53L 233,50L 232,48L 231,46L 230,45L 229,45L 229,48L 229.668,49.333Z"/>
  <path d="M 256,138L 256,120L 255,120L 255,138Z"/>
  <path d="M 42,126L 40.666,124L 40,123L 38.666,121L 38,120L 36,120L 35,121L 34.334,122L 33,124L 32.334,125L 31,127L 30.4297,128L 29.248,130L 28,132L 27.5,133.2256L 26.5,135.6123L 25.5,137.8545L 24.5,139.9678L 24,141L 23.4287,142.375L 22.1846,144.959L 20.6973,147.1484L 19.8486,148.0742L 18,150L 17,151L 16,152L 15.2096,153L 13.5779,155L 11.8334,157L 10,159L 10,160L 11,162L 12,164L 13.334,166L 14,167L 15,167L 17,165.3223L 19,163.752L 20,163L 21,162L 21.3418,160.8418L 22.1836,158.6836L 23.3418,156.8418L 24,156L 25.4844,154L 27,152L 27.7344,151L 28.4844,150L 30.0042,148L 31.5776,146L 33.2444,144L 35,142L 36.4844,140L 38,138L 39.4844,136L 41,134L 41.666,133L 43,131L 43,128Z"/>
  <path d="M 220,130L 221,131L 222,131L 222.666,130L 224,128L 224.666,127L 226,125L 226.666,124L 228,122L 229,120L 229,118L 227.2891,116.4961L 225.7314,114.8594L 225,114L 223.4375,112.0625L 222,110L 221,110L 220.3354,111.0015L 218.9624,113.021L 217.4707,115.0508L 215.8438,117.0313L 215,118L 214,120L 214,121L 215,123L 216,125L 217.6777,127L 219.248,129Z"/>
  <path d="M 255,135L 255,123L 254,123L 254,135Z"/>
  <path d="M 33,53L 33,55L 34.334,57L 35,58L 36,59L 37,60L 38,61L 39,62L 41,63L 42,63L 44.957,62.4966L 47.6406,62.1165L 49.9414,62.0195L 52,62.3401L 54.1406,63.0576L 56.5313,64L 59,65L 60,65.1406L 62,65.5039L 63,65.752L 64.168,66.042L 66.6455,66.668L 69.1836,67.3896L 71.5029,68.3076L 73.5107,69.5654L 75.2139,71.1455L 76,72L 77,73L 81,73L 82,73L 83,73L 85.668,72.998L 87,73L 91,73L 92,71L 93,69L 93.6729,66.3184L 94.3828,63.5977L 95.1611,60.8184L 96,58L 96,57L 93,56L 90.332,55.334L 89,55L 68,55L 66.5547,55.2461L 63.6055,55.6582L 60.5508,55.9121L 57.8428,56.0059L 55.5718,55.7979L 53.4595,55.0493L 51.6157,53.7109L 50,52L 49.0195,51L 47.1094,49L 45.3438,47L 43.7539,45L 43,44L 42,43L 41,43L 39.4629,44.6777L 37.8389,46.248L 37,47L 36.4121,48L 35.1582,50L 33.7461,52Z"/>
  <path d="M 47,33L 46,33L 45,34L 44,35L 43,36L 42,37L 41.334,38L 40,40L 40,42L 43,42L 44,41L 44.666,40L 46,38L 46.332,37L 47,35Z"/>
  <path d="M 49,34L 50,33L 51,32L 51,29L 50,29L 49,30L 48,31L 47,32L 47,35L 48,35Z"/>
  <path d="M 126,19L 126,20L 126.4219,21.3906L 127.1758,24.1055L 127.4648,25.4102L 127.7217,26.6748L 128.1279,29.1338L 128.2051,31.4824L 127.7949,33.7637L 127,36L 126.8594,37.5156L 126.4961,40.3867L 126,43L 126,45L 126.3242,46.1582L 126.7549,48.5449L 126.7178,51.0488L 126.2886,53.543L 125.6714,55.8613L 125,58L 125,60L 125.5,61L 126.4043,62.9199L 126.9746,64.8418L 127.0703,66.9219L 127,68L 127,76L 130,76L 131,75.0879L 133,73.3418L 135,71.7539L 136,71L 137,70.2344L 139,68.7344L 140,68L 141,67L 141,66L 140.9531,63.5156L 141,61L 141,59L 140.854,57.9941L 140.729,55.9512L 140.9929,53.8125L 141.6414,51.5469L 142.5234,49.1914L 143,48L 143.2344,46.7344L 143.7344,44.2344L 144,43L 144,40L 143.3633,38L 143.2085,37L 143.1177,36L 143.0656,34.75L 143.0067,32.25L 143,31L 142.7344,29.7656L 142.2344,27.2656L 142,26L 141.7344,24.7656L 141.2344,22.2656L 141,21L 139.666,19L 139,18L 138,17L 134,17L 132.8242,17.4121L 130.3164,18.1582L 127.4922,18.7461Z"/>
  <path d="M 156,8L 155,8L 153.5313,8.2656L 150.5313,8.7656L 149,9L 147.668,9.334L 145,10L 142,11L 139,12L 139,14L 140,15L 141,15L 144,14L 146.2402,12.9141L 148.7188,11.8438L 151.4805,10.9336L 154.4629,10.2715L 156,10Z"/>
  <path d="M 217,63L 215,62L 213,61L 211,60L 208,59L 204,59L 203.6777,60.248L 202.9258,62.6777L 202,65L 201.4521,68.0801L 200.7852,71.0781L 200,74L 200,77L 200.207,78.0024L 200.4375,80.0127L 200.2031,82.0225L 199.4727,84.0122L 199,85L 199,86L 200.0254,88.125L 200.6865,90.4531L 201,93L 201.4121,94.1133L 202.1582,96.3945L 202.7461,98.7813L 203.2261,101.1133L 203.6187,103.3945L 203.8926,105.7813L 204,107L 205,110L 206,112.1758L 207,114.5078L 208,117L 209,118L 210,119L 211,120L 212,121L 213,122L 214,123L 215,123L 215,121L 215,120L 215,118L 215,116L 215,115L 214.4844,112.4844L 214,110L 213.5278,107.4922L 213.1953,104.8242L 213,102L 212.77,100.6162L 212.3706,97.9072L 212.1187,95.3799L 212.0684,94.2344L 212.0387,93.1394L 212.0216,91.9558L 212.0198,89.3607L 212.1504,86.5078L 212.5957,83.9258L 213.4629,81.8926L 214,81L 214,80L 214,77.875L 214.0264,76.627L 214.1035,75.3027L 214.2776,73.9663L 214.8982,71.4175L 216.1284,69.4019L 217.0244,68.8591L 218.9424,68.1667L 221,68L 221,66L 220,65L 219,64.334Z"/>
  <path d="M 29,96L 28.666,94.668L 28,92L 27,92L 26.4121,92.9121L 25.1582,94.6582L 24.4521,95.4521L 23.6626,96.2876L 21.9365,98.0615L 21,99L 19.4629,101.4629L 17.8389,103.8389L 17,105L 16.334,106L 15,108L 15,110L 17,110L 18,109L 19,108L 20,107L 21,106L 23,104L 24.5371,102.3223L 26.1611,100.752L 27,100L 28,99L 29,98Z"/>
  <path d="M 116,28L 117,27L 118,26L 118,24L 117.0879,23L 115.3418,21L 113.7539,19L 113,18L 112.1074,17L 110.4512,15L 109.0977,13L 108,11L 106.7344,10.7656L 104.2344,10.2656L 103,10L 102,10L 100,11L 100,13L 101.9785,15L 103.8906,17L 105.6563,19L 107.2461,21L 108,22L 108.9121,23L 110.6582,25L 112.2461,27L 113,28Z"/>
  <path d="M 211,23L 209,22L 204,22L 204,26L 204.248,27.3633L 204.6777,30.1406L 205,33L 205.4121,34.1758L 206.1582,36.6836L 206.7461,39.5078L 207,41L 207.2461,42.4453L 207.6582,45.3945L 207.9121,48.4492L 208,50L 208.4102,51.1797L 209.1387,53.7227L 209.6563,56.6875L 210,60L 211,61L 213,62L 215,63L 216,63L 216,61L 215.7344,59.5313L 215.2344,56.5313L 215,55L 214.4844,52.5313L 214,50L 213.7344,48.7656L 213.2344,46.2656L 212.752,43.6367L 212.3223,40.8594L 212,38L 211.7344,36.7656L 211.4844,35.5156L 211.0254,33.0371L 210.7236,30.6279L 210.7227,28.293L 211,26Z"/>
  <path d="M 26,180L 27.0742,177.5703L 28.3223,175.1816L 29.5713,173.0352L 30.8154,171.1797L 32.3027,169.5078L 34,168L 35.4775,166.0137L 36.9795,164.0977L 38.5361,162.3359L 40.2129,160.7656L 42.0508,159.3457L 44,158L 45.001,156L 46.0259,154L 47.1563,152L 48.4888,150L 50,148L 50,147L 45,147L 44,148L 43,149L 42,150L 40,152L 39,153L 38,154L 37.2656,154.7656L 35.7656,156.2656L 35,157L 34.2656,158.0313L 32.7656,160.0313L 32,161L 30.4192,163L 28.7366,165L 26.9302,167L 26,168L 24.4629,169.6777L 22.8389,171.248L 22,172L 21,173L 19,175L 19,178L 19.4297,179.1406L 20.248,181.5039L 21,184L 22,184L 23.998,182.665L 25,182Z"/>
  <path d="M 24,191L 24.666,188.332L 25,187L 25,185L 24,184L 23,184L 23,191Z"/>
  <path d="M 76,238L 75,237L 72.999,235.668L 72,235L 70,234L 67,234L 66,235L 66,236L 68,237L 71,238L 74,239L 76,239Z"/>
  <path d="M 82,202L 82,203L 82.4258,204.4121L 83.2012,207.2031L 83.7559,209.9063L 84,212.4961L 84,215L 84,217L 84.7852,219.7852L 85.4521,222.4521L 86,225L 86.4824,226.4727L 87.4102,229.3828L 88.2461,232.2188L 89,235L 90,237L 91,238L 101,238L 101,236L 100.666,234.668L 100,232L 99.5703,230.5859L 98.752,227.7773L 98,225L 97.0654,222.0264L 96.2383,219.0547L 95.6143,216.0674L 95.2266,213.0469L 95,210L 94.4844,207.0156L 94,204L 93,201L 90,201L 88.4961,201.248L 85.3555,201.6777Z"/>
  <path d="M 220.666,217L 222,215L 222.5703,214L 223.752,212L 225,210L 225,208L 223.0601,207.4935L 221.7405,206.8073L 219.7837,205.2777L 218.7314,203.3253L 218,201L 217.332,200.001L 216,198L 213.999,196.668L 213,196L 211,196L 208,197L 205,198L 204,200L 204,201L 204.248,202.3633L 204.6777,205.1406L 205,208L 205.7656,208.7344L 207.2656,210.2344L 208.708,211.7744L 210.0229,213.3872L 211.1064,215.1396L 212,217L 215,218L 216,218L 219,218L 220,218Z"/>
  <path d="M 8,157L 9,157L 10.1406,156.5205L 12.5039,155.6714L 15,155L 16.7627,153.2402L 18.3574,151.7539L 20.1123,150.3447L 22,149L 23,147L 23.5,145.6133L 24.5,142.9204L 25.5,140.4263L 26.5,138.1519L 27.0205,137.0527L 28.1152,134.7908L 29.2988,132.438L 30.5156,130.1445L 31.1294,129.0825L 32.3784,127.0103L 33.6729,125L 34.3364,124L 35.666,122L 37,120L 37,119L 35,119L 33,120.6777L 31,122.248L 30,123L 29.2656,123.7656L 27.7656,125.2656L 27,126L 26.2261,126.9121L 24.6187,128.6582L 22.8926,130.2461L 22,131L 20.0127,132.8242L 18.0137,134.4922L 16,136L 15.2373,136.7598L 13.6426,138.2461L 11.8877,139.6553L 10,141L 8.2075,142.8242L 6.2078,144.4922L 4,146L 4,152L 5,155L 6,157L 7,157Z"/>
  <path d="M 226,140L 227.4521,142.1758L 228.7773,144.4922L 229.9404,146.9414L 230.9922,149.4531L 232,152L 233,152L 234,150L 234,149L 233.5808,145.8064L 233.2634,142.4353L 233.0698,138.8442L 233,137L 232.7739,135.6279L 232.3813,132.9209L 232.2444,131.6069L 232.0303,129.0293L 231.9531,126.5156L 232,124L 232,122L 231,119L 230,118L 229,118L 228.4297,119L 227.8389,120L 226.6172,122L 225.3271,124L 224.6636,125L 223.334,127L 222,129L 222,133L 223.3594,135.1885L 224.6934,137.5215Z"/>
  <path d="M 9,142L 9.2344,140.7344L 9.7344,138.2344L 10,137L 10,135L 9,135L 8,135.2021L 6,135.3271L 4,135L 3,135L 2.9121,136.5508L 2.6582,139.6055L 2.2461,142.5547L 2,144L 2,145L 3,148L 4,148L 4.999,147.332L 7,146L 8,145Z"/>
  <path d="M 27,183L 26,182L 23,181L 22,181L 21,184L 21,185L 22,188L 23,188L 25,188L 26,188L 28,186L 28,184Z"/>
  <path d="M 249,161L 249.3223,159.5039L 250.0742,156.6445L 251,154L 251,153L 250,152L 248.292,150.4502L 246.8516,148.6875L 245.8408,146.604L 245.2266,144.2388L 245,143L 244.7363,141.9688L 244.2148,139.7891L 243.7246,137.3438L 243.3164,134.6953L 243,132L 241,132L 240.3379,132.9648L 238.9824,134.8203L 237.5371,136.4922L 236,138L 235.2656,139L 233.7656,141L 233,142L 232,145L 232,146L 232.1406,148.4629L 232.0869,150.8389L 232,152L 232,153L 232.3872,154.1182L 233.0859,156.377L 233.6128,158.6768L 234,161L 234.2314,162.3555L 234.6509,165.1279L 235,168L 235.248,169.3633L 235.6777,172.1406L 236,175L 237,175L 238.332,174.666L 241,174L 242.0684,171.4834L 243.3047,169.2324L 244.7168,167.3467L 246.2285,165.7471L 247,165L 248,163Z"/>
  <path d="M 45,36L 44.5156,36.9648L 43.377,38.8203L 41.8486,40.4922L 40,42L 40,44L 41.0065,44.8046L 43.0114,46.4662L 44.9762,48.2755L 46.83,50.3033L 48.4962,52.5696L 50,55L 50.7656,55.7344L 52.2656,57.2344L 53,58L 54,58L 55.2344,57.7344L 57.7344,57.2344L 60.4453,56.7539L 63.3945,56.3418L 66.4492,56.0879L 68,56L 68,55L 65.6025,53.4189L 63.3762,51.7332L 61.4358,49.908L 59.7729,47.981L 59,47L 58,46L 57,45L 56,44L 53.999,42.0029L 53,41L 51.9727,40.2324L 49.9473,38.6318L 47.9746,36.8994L 47,36Z"/>
  <path d="M 153,61L 155,60L 155,59L 155,56L 155,55L 154.5703,51.9453L 154.3359,48.7656L 154.4092,45.5566L 154.7646,42.4863L 155,41L 155,40L 154.3608,37.8379L 153.7949,35.6133L 153.3491,33.3223L 153,31L 152.1953,28.8242L 151.8616,27.6582L 151.2556,25.2012L 150.7456,22.4473L 150.3418,19.3164L 150.0879,15.8242L 150,14L 149,12L 148,12L 146.6582,12.3247L 143.9551,12.9399L 141.2051,13.4536L 138.4082,13.8384L 137,14L 136,16L 136,17L 137.4863,18.5566L 138.8262,20.3164L 139.3613,21.3555L 139.8218,22.459L 140.5972,24.7495L 141.0615,27.1426L 141.1719,29.563L 141,32L 141,33L 141.002,35.668L 141,37L 141,38L 141,40L 141,41L 141.6758,43.3223L 141.8047,44.4678L 141.7744,46.7437L 141.2051,49.0396L 140.2168,51.4546L 139,54L 139,55L 139,56L 139,60L 139.5313,63L 140,66L 143,66L 144.333,65.332L 147,64L 149,63L 150.333,62.332Z"/>
  <path d="M 152,11L 151,10L 150,10L 148.668,10.334L 146,11L 146,13L 148,13L 149.332,12.666L 152,12Z"/>
  <path d="M 157,9L 156,9L 154.7656,9.2656L 152.2656,9.7656L 151,10L 151,11L 152,12L 154,12L 157,11Z"/>
  <path d="M 162,9L 157,9L 157,11L 162,11Z"/>
  <path d="M 175,55L 169,55L 169,56L 175,56Z"/>
  <path d="M 226,69L 225,68.334L 223,67L 220.5078,66.4521L 218.1758,65.7852L 216,65L 215,65L 214.334,66L 213,68L 212.9805,69.418L 212.8906,72.2969L 212.6563,75.1133L 212.2324,77.6543L 211.6543,79.9082L 211,82L 210.9805,83.8555L 210.8906,87.3477L 210.6563,90.332L 210.2461,92.8398L 210,94L 210,95L 210.2656,96.7344L 210.7656,100.2344L 211,102L 211.2734,103.2871L 211.7188,106.0156L 212,109L 212.3301,110.126L 212.96,112.4971L 213.5142,115.1387L 214,118L 216,118L 218,117L 219,116.332L 221,115L 221,109L 221,107L 221,105L 220.8594,102.5703L 220.9131,100.1816L 221,99L 221.0278,95.814L 221.1255,94.6372L 221.478,92.2583L 222.1353,89.7329L 223,87L 223,86L 222.7939,84.6953L 222.4971,82.0117L 222.4907,79.2207L 222.8325,76.4707L 223.5298,73.9648L 224.6128,71.832L 226,70Z"/>
  <path d="M 237,63L 237,60L 236,58L 235,57L 234,57L 234,59L 235,61L 236,63Z"/>
  <path d="M 29,72L 28,72L 28,81L 29,81Z"/>
  <path d="M 56,25L 54,25L 53,26L 52,27L 51,28L 49.8384,30.3438L 48.4731,32.4307L 46.8604,34.1924L 46,35L 46,36L 46.7656,37L 48.2656,39L 49,40L 50,41L 52,43L 53,44L 54.1382,44.7739L 56.2769,46.3813L 57.2078,47.2444L 58.1229,48.149L 59.9312,50.0269L 61.6582,52L 63.2461,54L 64,55L 84,55L 84,54L 82.666,52L 82,51L 81.0879,50L 79.3418,48L 77.7539,46L 77,45L 76,44L 75,43L 74,42L 73,41L 71.1074,39.9023L 69.3438,38.5488L 67.7539,36.8926L 67,36L 65.0215,34L 63.1094,32L 61.3438,30L 59.7539,28L 59,27L 57.998,26.3359Z"/>
  <path d="M 60,25L 61,24L 61,22L 58,22L 57,23L 56,24L 55,26L 55,28L 56,28L 58,26.666L 59,26Z"/>
  <path d="M 75,13L 73,14L 73,15L 79,15L 79,13Z"/>
  <path d="M 173,9L 162,9L 160.4961,9.4961L 157.3555,10.3555L 154,11L 152.7656,11.2656L 150.2656,11.7656L 149,12L 149,14L 149.2256,15.5488L 149.6123,18.7754L 149.8545,22.291L 149.9678,26.0645L 150,28L 150.8818,30.0186L 151.6309,32.1387L 152.2114,34.4941L 152.6504,37.1465L 153,40L 153.4922,43.5078L 153.8203,47.1797L 153.8906,49.1094L 153.9346,50.9404L 153.9883,54.3867L 153.999,57.501L 154,59L 159,59L 160.332,58.666L 163,58L 164.332,57.666L 167,57L 169,56L 169,52L 168.5898,50.8281L 167.8633,48.3438L 167.3633,45.5625L 167.0898,42.5469L 167,41L 166.7539,39.5078L 166.3438,36.4375L 166.1074,33.2383L 166,30L 165.7739,28.814L 165.3813,26.4604L 165.1074,24.1465L 165,23L 164.7969,21.5352L 164.6094,18.5781L 165.0625,15.7344L 166.4824,13.418L 168.9238,11.9492L 172.0469,11.2656L 175.3555,11.043L 177,11L 177,10L 174.332,9.334Z"/>
  <path d="M 187,54L 178,54L 178,55L 187,55Z"/>
  <path d="M 233,75L 230.7236,73.6299L 228.7227,71.9634L 227,70L 223,70L 222.7656,71.2656L 222.2656,73.7656L 222,75L 221.6777,78.3555L 221.248,81.4961L 221,83L 221,84L 221.0754,86.2798L 220.8752,88.5703L 220.3403,90.8589L 220,92L 220,97L 220,99L 220,105L 220,107L 220,109L 221.0313,111.4688L 222,114L 223,115L 223.7656,115.7344L 225.2656,117.2344L 226,118L 230,118L 231,116L 231,114L 230.7905,112.8633L 230.6072,111.689L 230.3037,109.2324L 230.14,106.519L 230.1445,103.5469L 230.3511,100.4702L 230.7548,97.4673L 231,96L 231.3223,93.1406L 231.752,90.3633L 232,89L 232.7065,86.1885L 233.9243,84.2607L 235.7749,83.6455L 238,84L 240,84L 240,83L 239,81L 237.3223,79.4629L 235.752,77.8389L 235,77L 234,76Z"/>
  <path d="M 235,57L 235,55L 234,53L 232,53L 232,54L 233,56L 234,57Z"/>
  <path d="M 3,144L 3,138L 2.7559,136.4961L 2.3652,133.3555L 2.2188,130L 2.3652,126.6445L 2.7559,123.5039L 3,122L 3,116L 2,116L 1,118L 1,139L 1.2656,140.2344L 1.7656,142.7344L 2,144Z"/>
  <path d="M 4,112L 5,110L 6,108L 6,104L 5,104L 4,105L 3.334,107.668L 3,109L 3,112Z"/>
  <path d="M 23,75L 23,76L 25,76L 26,75L 27,74L 28,73L 28,71L 27,71L 26,72L 25,73L 24,74Z"/>
  <path d="M 32,58L 31,58L 30,60L 29,63L 29,68L 30,68L 30.376,66.6113L 31.1611,63.8184L 32,61Z"/>
  <path d="M 39,45L 37,45L 36,46L 35,48L 34,50L 34,53L 35,53L 35.5879,52L 36.8418,50L 38.2539,48L 39,47Z"/>
  <path d="M 38,45L 39,46L 40,46L 41,45L 41,44L 40,42L 39,42L 38,43Z"/>
  <path d="M 61,23L 63,23L 64,22L 64,20L 61,20L 60,21L 60,22Z"/>
  <path d="M 86,10L 86,11L 91,11L 94,10L 94,9L 89,9Z"/>
  <path d="M 104,240L 88,240L 88,241L 104,241Z"/>
  <path d="M 129,13L 126,12L 123,11L 120.332,10.334L 119,10L 117.7344,9.7656L 115.2344,9.2656L 114,9L 110.7617,8.8926L 107.5625,8.6563L 104.4922,8.2461L 103,8L 101,8L 99.6367,8.248L 96.8594,8.6777L 94,9L 94,10L 95.9961,10.002L 99.957,10.0215L 103.7813,10.1094L 105.5469,10.2266L 108.8887,10.5557L 111.8867,11.0566L 113.2705,11.3647L 115.9951,12.0024L 118.668,12.666L 120,13L 122.668,13.666L 124,14L 129,14Z"/>
  <path d="M 110,239L 104,239L 104,240L 110,240Z"/>
  <path d="M 139,13L 136,13L 134,14L 134,16L 135,17L 136,17L 137,16L 139,14Z"/>
  <path d="M 180,246L 176,246L 174.6367,246.248L 171.8594,246.6777L 169,247L 167.5508,247.2441L 164.582,247.6348L 161.5,247.7813L 158.418,247.6348L 155.4492,247.2441L 154,247L 148,247L 148,248L 150.668,248.666L 152,249L 154.8594,249.3223L 157.6367,249.752L 159,250L 164,250L 165.5039,249.752L 168.6445,249.3223L 172,249L 173.2344,248.7344L 175.7344,248.2344L 177,248L 180,247Z"/>
  <path d="M 184,10L 181,9L 179.4688,8.7656L 176.4688,8.2656L 175,8L 171.6445,7.6777L 168.5039,7.248L 167,7L 163,7L 161.6367,7.248L 158.8594,7.6777L 156,8L 156,9L 157.6211,9.002L 161.082,9.0215L 164.7813,9.1094L 168.3125,9.3438L 171.4922,9.7539L 173,10L 175.8594,10.3223L 178.6367,10.752L 180,11L 184,11Z"/>
  <path d="M 207,232L 207,233L 209,233L 210,232L 211,231L 212,230L 212,229L 210,229L 209,230L 208,231Z"/>
  <path d="M 218,219L 217,222L 217,224L 218,224L 219,223L 220,222L 220,219Z"/>
  <path d="M 236,187L 236,179L 235,179L 235,187Z"/>
  <path d="M 239,74L 238,74L 238,81L 239,83L 240,83L 240,75Z"/>
  <path d="M 237,179L 238,178L 239,177L 240,176L 240,174L 239,174L 238,175L 237,176L 236,177L 236,179Z"/>
  <path d="M 244,170L 245,169L 246,167L 246,165L 245,165L 244,166L 243,168L 243,170Z"/>
  <path d="M 250,159L 251,157L 251,154L 250,154L 249,155L 249,159Z"/>
  <path d="M 255,123L 255,113L 254,110L 253,110L 253,115L 253.248,116.5039L 253.6777,119.6445L 254,123Z"/>
  <path d="M 253,151L 254,148L 254,143L 253,143L 252.334,145.668L 252,147L 252,151Z"/>
  <path d="M 255,144L 255,135L 254,135L 254,144Z"/>
  <path d="M 28,77L 27,77L 27,84L 28,84Z"/>
  <path d="M 91,10L 89.7656,10.2656L 87.2656,10.7656L 86,11L 84.8594,11.6777L 82.4961,12.9258L 80,14L 80,16L 81.334,18L 82,19L 82.9805,20L 84.8906,22L 86.6563,24L 88.2461,26L 89,27L 90.8926,29L 92.6563,31L 94.2461,33L 95,34L 96.8926,36L 98.6563,38L 100.2461,40L 101,41L 104,41L 105,40L 106,39L 107.4844,37L 109,35L 109,34L 107.3223,32L 105.752,30L 105,29L 104.0879,28L 102.3418,26L 100.7539,24L 100,23L 99.0537,22L 98.1426,20.9922L 96.4395,18.9375L 95.0972,16.7656L 94.7046,15.6016L 94.1753,13.0273L 94,10Z"/>
  <path d="M 102,10L 94,10L 94,11L 102,11Z"/>
  <path d="M 110,10L 103,10L 103,11L 110,11Z"/>
  <path d="M 203,19L 203,18L 202,17L 200,16L 198,15L 196,14L 187,14L 187,22L 187.2461,23.4453L 187.6582,26.3945L 187.9121,29.4492L 188,31L 188.2656,32.4688L 188.7656,35.4688L 189,37L 189.2461,38.5078L 189.6582,41.6836L 189.9121,45.1758L 190,47L 190.4121,48.1758L 191.1582,50.6836L 191.7461,53.5078L 192,55L 195,56L 198,57L 200.668,57.666L 202,58L 203,58L 203,55L 202.666,53.668L 202,51L 201.3506,48.3379L 200.7695,45.6406L 200.3232,42.8613L 200,40L 199.7904,38.8064L 199.4221,36.457L 199.1666,34.1936L 199,32L 198.4844,29.4844L 198.2471,28.2354L 197.8672,25.7334L 197.8867,23.3047L 198.7168,21.2383L 200.5264,19.8389Z"/>
  <path d="M 205,19L 203,19L 203,21L 206,22L 208,22L 208,21L 207,20Z"/>
  <path d="M 250,104L 251,101L 251,100L 250,98L 249,96L 247.9688,95.5596L 245.9688,94.5596L 245,94L 244,94L 243.334,96.668L 243,98L 243,101L 243.1382,102.2061L 243.2769,104.5791L 243.1387,106.873L 243,108L 243,110L 246,110L 247.125,108.0127L 248.4531,106.0137Z"/>
  <path d="M 253,106L 252,103L 251,101L 250,101L 249,104L 249,105L 251,107L 253,107Z"/>
  <path d="M 9,164L 10,165L 11,165L 11,160L 9,160L 8,161L 8,162Z"/>
  <path d="M 12,162L 11,162L 10,165L 10,166L 11.334,168L 12,169L 13,170L 14,170L 14,165L 12.666,163Z"/>
  <path d="M 15,173L 17,173L 17,170L 15.666,168L 15,167L 14,167L 14,172Z"/>
  <path d="M 19,177L 20,175L 20,170L 18,170L 17,171L 16,173L 16,175L 17,176L 18,177Z"/>
  <path d="M 54,229L 54,226L 50,226L 50,227L 51,228L 52,229Z"/>
  <path d="M 72,202L 71,202L 71,209L 71.2461,210.7539L 71.6582,214.3418L 71.9121,218.0879L 72,220L 72.5313,222.5195L 73,225L 73.4805,226.5117L 74.3906,229.5391L 75.1563,232.5547L 75.7461,235.5273L 76,237L 77.2656,237.2344L 79.7656,237.7344L 81,238L 91,238L 91,237L 90.5703,235.8594L 89.752,233.4961L 89.376,232.248L 88.9819,230.918L 88.2148,228.2148L 87.5479,225.5479L 87,223L 86.3516,220L 86.0156,217L 86.0078,215.5L 86,213L 85.625,211.6172L 85.041,208.9258L 84.8516,206.3984L 85,204L 85,203L 83.3516,202.9805L 80,202.8906L 76.6563,202.6563L 73.5078,202.2461Z"/>
  <path d="M 187,202L 176,202L 176,203L 187,203Z"/>
  <path d="M 181,247L 184,246L 187,245L 187,244L 180,244L 180,247Z"/>
  <path d="M 188,244L 190,244L 192,243L 192,242L 191,241L 188,241Z"/>
  <path d="M 217,225L 218,222L 219,219L 219,217L 217.8018,216.7363L 215.6045,215.9746L 214.7036,215.3564L 213.8025,214.6128L 211.9546,212.9307L 210.9988,211.9458L 210.0668,210.9182L 208.3203,208.7773L 206.958,206.4893L 206.2588,204.168L 206.3486,201.9912L 207,200L 207,199L 201,199L 199.668,199.334L 197,200L 195.668,200.334L 193,201L 192.9238,202.25L 192.6641,204.6875L 192.1563,206.9375L 191.416,209L 191,210L 190.6777,212.3633L 190.248,214.7773L 190,216L 190,217L 191,219L 191.668,220.332L 193,223L 195.1738,224.0742L 197.1074,225.3223L 198,226L 199.5215,226.2744L 202.4785,226.8877L 205.2285,227.6455L 207.7715,228.5322L 209,229L 213,229L 213.6777,228.1074L 215.2021,226.4502Z"/>
  <path d="M 194,242L 196,241L 198,240L 198,239L 193,239L 193,242Z"/>
  <path d="M 200,238L 202,238L 203,237L 203,234L 202,234L 200,235Z"/>
  <path d="M 205,236L 206,235L 207,234L 208.4844,232L 210,230L 210,229L 208,229L 207,229.7656L 205,231.2656L 204,232L 204,233L 204,234L 204,236Z"/>
  <path d="M 242,173L 243,172L 243,169L 241,169L 240,170L 240,172L 241,173Z"/>
  <path d="M 8.7656,138.2656L 8.2656,140.7656L 8,142L 8,144L 9,144L 10.9922,142.4688L 13,141L 14.9873,139.1758L 16.9863,137.5078L 19,136L 19.7739,135.0879L 21.3813,133.3418L 23.1074,131.7539L 24,131L 25,130L 26,129L 28,127.002L 30,125.0215L 32,123.1094L 34,121.3438L 36,119.7539L 37,119L 37,118L 36.332,116.667L 35,114L 34,112L 33,111L 32,111L 30,112L 29,113L 28.3201,114.0029L 26.9189,115.9873L 25.4041,117.8955L 23.7354,119.6572L 21.9302,121.2461L 21,122L 20.2656,122.7656L 18.7656,124.2656L 18,125L 17.2261,125.9121L 15.6187,127.6582L 13.8926,129.2461L 13,130L 12.334,131L 11,133L 10,135L 9,137Z"/>
  <path d="M 232,112L 231,114L 230,116L 230,119L 230.2256,120.6768L 230.6123,123.9541L 230.8545,126.9932L 230.9678,129.7158L 231,131L 231.2261,132.5479L 231.6187,135.7627L 231.8926,139.2148L 232,141L 233,142L 235,142L 236.4688,140.4688L 238,139L 238.5703,138L 239.752,136L 241,134L 242,132L 243,130L 243,129L 243,127L 243,126L 243.0039,123.1875L 243.0508,120.6875L 243.2539,118.3125L 243.707,116.0625L 244,115L 244.0879,113.4492L 244.3418,110.3945L 244.7539,107.4453L 245,106L 245,105L 244.666,103.668L 244,101L 243,100L 241,100L 239,101L 238,102L 237.4297,103L 236.248,105L 235,107L 233.8594,109.0078L 232.6367,111.0049Z"/>
  <path d="M 238,66L 238,64L 237,63L 236,63L 236,67L 237,67Z"/>
  <path d="M 253,107L 251,107L 251,109L 252,110L 254,110L 254,109Z"/>
  <path d="M 15.5479,110.7539L 16.7627,108.3418L 18.2148,106.0879L 19,105L 19.666,104L 21.042,101.9463L 21.7896,100.9028L 23.3667,98.8696L 25.0981,96.9399L 26,96L 27,94L 28,92L 28,91L 27.7344,89.5313L 27.2344,86.5313L 27,85L 26,85L 25.334,86L 24,88L 23.334,89L 22,91L 21.4287,91.9648L 20.1846,93.8203L 18.6973,95.4922L 17,97L 16.4121,97.9121L 15.1582,99.6582L 14.4521,100.4521L 13.6626,101.2876L 11.9365,103.0615L 11,104L 10.2095,105.2095L 8.5762,107.5762L 6.8223,109.8223L 4.9556,111.9556L 4,113L 4,120L 6,120L 6.9297,119.1406L 8.8862,117.5039L 11,116L 12,115L 14,113L 15,112Z"/>
  <path d="M 112,10L 110,10L 108,11L 107,12L 107,13L 108.8926,15L 110.6563,17L 112.2461,19L 113,20L 114,21L 115,22L 116,23L 117,24L 118,25L 119,25L 121,23.666L 122,23L 123,22L 123,20L 121.5464,18L 120.5195,16L 120.2996,15L 120.0398,13L 120,12L 117.332,11.334L 116,11L 113.332,10.334Z"/>
  <path d="M 223,35L 221.666,33L 221,32L 220,31L 219,30L 218,29L 217,28L 216,27L 215,26L 214,25.334L 212,24L 211,24L 209,26L 209,28L 209.2656,29.2344L 209.7656,31.7344L 210,33L 210.2656,34.2344L 210.7656,36.7344L 211.248,39.3633L 211.6777,42.1406L 212,45L 212.2261,46.2993L 212.6187,48.9341L 212.8926,51.6348L 213,53L 213.4121,54.1758L 214.1582,56.6836L 214.7461,59.5078L 215,61L 216,63L 217,64L 218,65L 219,65.666L 221,67L 222,67L 222,60L 221.7344,58.7656L 221.2344,56.2656L 221,55L 220.7344,53.7656L 220.2344,51.2656L 220,50L 219.7344,48.7656L 219.2344,46.2656L 218.9932,44.9512L 218.7805,43.6084L 218.6632,42.2632L 218.7021,40.9783L 219.2125,38.6653L 220.7001,37.02L 223,36Z"/>
  <path d="M 229,46L 229,43L 228,42L 227,42L 227,45L 228,46Z"/>
</svg>
